<?xml version="1.0" encoding="utf-8"?>
<!-- Generator: Adobe Illustrator 28.0.0, SVG Export Plug-In . SVG Version: 6.00 Build 0)  -->
<svg version="1.1" id="Layer_1" xmlns="http://www.w3.org/2000/svg" xmlns:xlink="http://www.w3.org/1999/xlink" x="0px" y="0px"
	 viewBox="0 0 100 100" style="enable-background:new 0 0 100 100;" xml:space="preserve">
<style type="text/css">
	.st0{fill:#FF8787;}
	.st1{fill:#FFFFFF;}
	.st2{fill:#4B2B1A;}
</style>
<rect class="st0" width="100" height="100"/>
<g>
	<g>
		<path class="st1" d="M53.6,50.7l-0.6,0.2c-12.8,4.4-14.5,21.6-12.1,28.3c2.4,6.7,9,6.3,12.6,5.2c3.6-1.2,4.6-2.9,5.2-3.5
			s1.9-1.8,4.7-2.8c2.8-1,5.2-0.4,5.2-0.4c2.8,0.7,5.5-0.4,5.5-0.4c9.7-3.4,6.9-11.6,6.9-11.6C76.1,51.1,61,48.1,53.6,50.7z"/>
		<path class="st1" d="M58.3,41.2c5.6-0.6,7.9-7.6,7.7-12.1c-0.2-4.5-3.2-12.7-9.4-12c-6.2,0.6-7.7,8.1-7.3,13.1
			C49.8,35.1,52.7,41.8,58.3,41.2z"/>
		<path class="st1" d="M80.2,29.7c-4.2-0.5-8.1,2.4-9.8,9.3c-1.6,6.9,1.2,9.8,3.3,10.6s8.2,1.3,10.7-6.8
			C86.8,34.6,83.9,30.2,80.2,29.7z"/>
		<path class="st1" d="M42.8,45.6c2.4-1.4,5.3-6.4,0.7-14.5c-4.6-8.2-10.3-7.9-13.4-5.9c-3.1,2-4.3,8.4,0,15.3
			C34.5,47.3,40.4,47,42.8,45.6z"/>
		<path class="st1" d="M30.8,50.1c-4.6-3.9-9.3-3.4-12-0.2c-2.7,3.2,0.6,9.5,4.9,12.9c4.4,3.3,9.4,2.3,11.3,0
			C36.9,60.5,36.2,54.7,30.8,50.1z"/>
	</g>
	<g>
		<path class="st2" d="M50.6,48.7l-0.6,0.2c-12.8,4.4-14.5,21.6-12.1,28.3c2.4,6.7,9,6.3,12.6,5.2c3.6-1.2,4.6-2.9,5.2-3.5
			s1.9-1.8,4.7-2.8c2.8-1,5.2-0.4,5.2-0.4c2.8,0.7,5.5-0.4,5.5-0.4c9.7-3.4,6.9-11.6,6.9-11.6C73.1,49.1,58,46.1,50.6,48.7z"/>
		<path class="st2" d="M55.3,39.2c5.6-0.6,7.9-7.6,7.7-12.1c-0.2-4.5-3.2-12.7-9.4-12c-6.2,0.6-7.7,8.1-7.3,13.1
			C46.8,33.1,49.7,39.8,55.3,39.2z"/>
		<path class="st2" d="M77.2,27.7c-4.2-0.5-8.1,2.4-9.8,9.3c-1.6,6.9,1.2,9.8,3.3,10.6s8.2,1.3,10.7-6.8
			C83.8,32.6,80.9,28.2,77.2,27.7z"/>
		<path class="st2" d="M39.8,43.6c2.4-1.4,5.3-6.4,0.7-14.5c-4.6-8.2-10.3-7.9-13.4-5.9c-3.1,2-4.3,8.4,0,15.3
			C31.5,45.3,37.4,45,39.8,43.6z"/>
		<path class="st2" d="M27.8,48.1c-4.6-3.9-9.3-3.4-12-0.2c-2.7,3.2,0.6,9.5,4.9,12.9c4.4,3.3,9.4,2.3,11.3,0
			C33.9,58.5,33.2,52.7,27.8,48.1z"/>
	</g>
</g>
</svg>
