<?xml version="1.0" encoding="utf-8"?>
<!-- Generator: Adobe Illustrator 28.0.0, SVG Export Plug-In . SVG Version: 6.00 Build 0)  -->
<svg version="1.1" id="Layer_1" xmlns="http://www.w3.org/2000/svg" xmlns:xlink="http://www.w3.org/1999/xlink" x="0px" y="0px"
	 viewBox="0 0 28 28" style="enable-background:new 0 0 28 28;" xml:space="preserve">
<style type="text/css">
	.st0{fill-rule:evenodd;clip-rule:evenodd;fill:#FFFFFF;}
	.st1{fill-rule:evenodd;clip-rule:evenodd;fill:#4B2B1A;}
	.st2{fill:#4B2B1A;stroke:#4B2B1A;stroke-linecap:round;stroke-linejoin:round;stroke-miterlimit:10;}
</style>
<circle class="st0" cx="14" cy="14" r="14"/>
<path class="st1" d="M14,25c6.1,0,11-4.9,11-11S20.1,3,14,3S3,7.9,3,14S7.9,25,14,25z M14,23.1c5.1,0,9.1-4.1,9.1-9.1
	c0-5.1-4.1-9.1-9.1-9.1S4.9,8.9,4.9,14S8.9,23.1,14,23.1z"/>
<polygon class="st2" points="17.2,18.1 18,17.4 15.7,14.3 18.2,13.6 10.6,9.4 12.6,17.9 14,15.6 16.3,18.7 "/>
</svg>
